<?xml version="1.0" encoding="UTF-8"?>
<svg width="1480mm" height="250mm" version="1.1" viewBox="0 0 1480 250" xmlns="http://www.w3.org/2000/svg">
 <g transform="translate(0,-47)">
  <g>
   <path transform="matrix(.26458 0 0 .26458 0 47)" d="m385.5 65.094a330.65 329.18 0 0 0 -330.65 329.18 330.65 329.18 0 0 0 330.65 329.18 330.65 329.18 0 0 0 330.65 -329.18 330.65 329.18 0 0 0 -330.65 -329.18zm0.53125 82.889a250.61 243.84 0 0 1 250.61 243.84 250.61 243.84 0 0 1 -250.61 243.84 250.61 243.84 0 0 1 -250.61 -243.84 250.61 243.84 0 0 1 250.61 -243.84z" stroke-width="1.109"/>
   <g fill-opacity=".99248">
    <path transform="matrix(.26458 0 0 .26458 0 47)" d="m607.67 551.73c-5.4264-0.0589-10.875 1.9613-15.078 6.0742l-55.422 54.232c-8.4063 8.2258-8.5519 21.615-0.32617 30.021l54.225 55.414 84.986-84.727-53.441-54.615c-4.1129-4.2031-9.5169-6.3415-14.943-6.4004zm96.363 89.607-84.986 84.727 153.87 157.25c8.2258 8.4063 21.615 8.5519 30.021 0.32618l55.42-54.23c8.4063-8.2258 8.5519-21.615 0.32617-30.021z" stroke-width=".90238"/>
    <g stroke="#000" stroke-opacity=".99608">
     <circle cx="131.6" cy="108.93" r="7.938" stroke-width=".3969"/>
     <g stroke-width=".26458">
      <circle cx="54.33" cy="159.49" r="7.9375"/>
      <circle cx="79.867" cy="192.5" r="7.9375"/>
      <circle cx="151.17" cy="146.31" r="10.583"/>
      <circle cx="90.039" cy="99.943" r="5.2917"/>
      <circle cx="126.54" cy="192.75" r="10.583"/>
     </g>
    </g>
   </g>
   <g stroke="#000" stroke-opacity=".99608" stroke-width="2.5">
    <path d="m91.017 102.8l-15.559 25.573"/>
    <path d="m56.092 158.89h42.333"/>
    <path d="m69.321 122.9l37.042 37.042"/>
    <path d="m132.29 109.15c-28.015 46.726-28.015 46.726-28.015 46.726"/>
    <path d="m156.03 140.9c-25.245 43.392-25.245 43.392-25.245 43.392"/>
    <path d="m53.446 156.86c30.692 37.923 30.692 37.923 30.692 37.923"/>
    <path d="m100.54 159.42l26.458 31.75"/>
   </g>
  </g>
  <ellipse cx="100.5" cy="157.1" rx="15.214" ry="14.552" fill="#f00" stroke="#f00" stroke-width="1.1247"/>
  <g>
   <g stroke="#000" stroke-opacity=".99608">
    <circle cx="90.541" cy="102.4" r="7.9375" stroke-width="2"/>
    <circle cx="75.206" cy="128.47" r="7.9375" fill-opacity=".99606" stroke-width="2"/>
    <path d="m79.375 192.23h42.333" stroke-width="2.5"/>
   </g>
   <g stroke-width=".26458" style="font-feature-settings:normal;font-variant-caps:normal;font-variant-ligatures:normal;font-variant-numeric:normal" aria-label="LogonTracer">
    <path d="m273.23 200.62h70.82v27.164h-105.75v-135.82h34.925z" style="font-feature-settings:normal;font-variant-caps:normal;font-variant-ligatures:normal;font-variant-numeric:normal"/>
    <path d="m460.51 198.68q0 14.552-8.3432 22.895-8.1492 8.1492-22.701 8.1492h-44.626q-14.552 0-22.895-8.1492-8.1492-8.3432-8.1492-22.895v-44.626q0-14.552 8.1492-22.701 8.3432-8.3432 22.895-8.3432h44.626q14.552 0 22.701 8.3432 8.3432 8.1492 8.3432 22.701zm-33.955-41.716q0-7.7611-7.7611-7.7611h-23.283q-7.7611 0-7.7611 7.7611v38.806q0 7.7611 7.7611 7.7611h23.283q7.7611 0 7.7611-7.7611z" style="font-feature-settings:normal;font-variant-caps:normal;font-variant-ligatures:normal;font-variant-numeric:normal"/>
    <path d="m476.2 155.99q0-14.552 8.1492-22.701 8.3432-8.3432 22.895-8.3432h71.79v108.66q0 13.194-7.9551 21.149-7.9551 7.9551-21.149 7.9551-11.06 0-22.895-0.58208t-21.925-1.3582q-11.836-0.77611-23.089-1.9403v-25.224q9.8954 0.77611 19.791 1.5522 8.5372 0.58208 18.239 0.97014 9.7014 0.38805 18.239 0.38805 2.9104 0 4.8507-1.9403 1.9403-1.9403 1.9403-4.8507v-9.7014q-5.6268 1.1642-11.448 1.9403-5.0447 0.77611-10.866 1.3582-5.6268 0.58209-10.672 0.58209h-6.791q-13.194 0-21.149-7.9551t-7.9551-21.149zm33.955 34.925q0 2.9104 1.9403 4.8507t4.8507 1.9403h4.8507q4.6567 0 8.7312-0.19403 4.2686-0.38805 7.5671-0.77611 3.6865-0.38806 6.985-0.97014v-44.626h-27.164q-7.7611 0-7.7611 7.7611z" style="font-feature-settings:normal;font-variant-caps:normal;font-variant-ligatures:normal;font-variant-numeric:normal"/>
    <path d="m703.05 198.68q0 14.552-8.3432 22.895-8.1492 8.1492-22.701 8.1492h-44.626q-14.552 0-22.895-8.1492-8.1492-8.3432-8.1492-22.895v-44.626q0-14.552 8.1492-22.701 8.3432-8.3432 22.895-8.3432h44.626q14.552 0 22.701 8.3432 8.3432 8.1492 8.3432 22.701zm-33.955-41.716q0-7.7611-7.7611-7.7611h-23.283q-7.7611 0-7.7611 7.7611v38.806q0 7.7611 7.7611 7.7611h23.283q7.7611 0 7.7611-7.7611z" style="font-feature-settings:normal;font-variant-caps:normal;font-variant-ligatures:normal;font-variant-numeric:normal"/>
    <path d="m750.75 124.95 1.9403 9.7014q5.0447-3.2985 10.866-5.8208 5.0447-2.1343 11.254-3.8806 6.2089-1.9403 12.806-1.9403h8.7312q13.194 0 21.149 7.9551 7.9551 7.9551 7.9551 21.149v75.671h-33.955v-69.85q0-2.9104-1.9403-4.8507t-4.8507-1.9403h-6.791q-3.6865 0-7.7611 0.58209-4.0746 0.58208-7.5671 1.3582-4.0746 0.77611-7.9551 1.9403v72.76h-33.955v-102.83z" style="font-feature-settings:normal;font-variant-caps:normal;font-variant-ligatures:normal;font-variant-numeric:normal"/>
    <path d="m910.99 227.78h-34.925v-108.66h-40.746v-27.164h116.42v27.164h-40.746z" style="font-feature-settings:normal;font-variant-caps:normal;font-variant-ligatures:normal;font-variant-numeric:normal"/>
    <path d="m983.43 124.95 1.9403 12.612q4.4626-3.8806 9.8954-7.179 4.6567-2.7164 10.866-5.0447 6.4029-2.3283 14.164-2.3283h8.7313v30.074h-16.492q-5.0447 0-9.7014 0.97014-4.4626 0.97014-7.9551 1.9403-4.0746 1.3582-7.5671 2.9104v68.88h-33.955v-102.83z" style="font-feature-settings:normal;font-variant-caps:normal;font-variant-ligatures:normal;font-variant-numeric:normal"/>
    <path d="m1076 202.56q3.6866 0 7.7612-0.58208 4.0745-0.58208 7.567-1.3582 4.0746-0.77612 7.9552-1.9403v-11.642h-28.134q-2.9104 0-4.8506 1.9403-1.9403 1.9403-1.9403 4.8507v1.9403q0 2.9104 1.9403 4.8507 1.9402 1.9403 4.8506 1.9403zm-16.492 27.164q-13.194 0-21.149-7.9551-7.9552-7.9551-7.9552-21.149v-8.7312q0-13.194 7.9552-21.149 7.9551-7.9551 21.149-7.9551h39.776v-7.7611q0-2.9104-1.9403-4.8507-1.9403-1.9403-4.8507-1.9403-7.7611 0-16.88 0.58208-8.9253 0.38806-16.88 0.97014-9.3134 0.77611-18.627 1.3582v-24.253q10.672-1.1642 21.731-1.9403 9.5074-0.77611 20.761-1.3582t21.537-0.58208q13.194 0 21.149 7.9551 7.9551 7.9551 7.9551 21.149v75.671h-30.074l-1.9402-9.7014q-5.0448 3.2985-10.866 5.8208-5.0447 2.1343-11.254 3.8806-6.2089 1.9403-12.806 1.9403z" style="font-feature-settings:normal;font-variant-caps:normal;font-variant-ligatures:normal;font-variant-numeric:normal"/>
    <path d="m1148.9 155.99q0-14.552 8.1491-22.701 8.3432-8.3432 22.895-8.3432h62.089v26.194h-51.417q-7.7612 0-7.7612 7.7611v37.835q0 2.9104 1.9403 4.8507 1.9403 1.9403 4.8507 1.9403 7.5671 0 16.686-0.38805 9.1193-0.38806 17.074-0.97014 9.3134-0.77611 18.627-1.5522v25.224q-10.866 1.1642-21.925 1.9403-9.5074 0.77611-20.761 1.3582-11.06 0.58208-21.343 0.58208-13.194 0-21.149-7.9551-7.9551-7.9551-7.9551-21.149z" style="font-feature-settings:normal;font-variant-caps:normal;font-variant-ligatures:normal;font-variant-numeric:normal"/>
    <path d="m1297.4 147.26q-7.7611 0-7.7611 7.7611v10.672h32.985v-10.672q0-7.7611-7.7611-7.7611zm-41.716 6.791q0-14.552 8.1491-22.701 8.3432-8.3432 22.895-8.3432h38.806q14.552 0 22.701 8.3432 8.3432 8.1492 8.3432 22.701v35.895h-66.94v7.7611q0 2.9104 1.9403 4.8507 1.9403 1.9403 4.8507 1.9403 8.3432 0 18.045-0.38805 9.8954-0.38806 18.433-0.97014 9.8954-0.77611 19.791-1.5522v24.253q-11.254 1.1642-23.089 1.9403-10.089 0.77611-21.925 1.3582-11.836 0.58208-22.895 0.58208-13.194 0-21.149-7.9551t-7.9551-21.149z" style="font-feature-settings:normal;font-variant-caps:normal;font-variant-ligatures:normal;font-variant-numeric:normal"/>
    <path d="m1404.1 124.95 1.9403 12.612q4.4626-3.8806 9.8954-7.179 4.6567-2.7164 10.866-5.0447 6.4029-2.3283 14.164-2.3283h8.7313v30.074h-16.492q-5.0447 0-9.7014 0.97014-4.4626 0.97014-7.9551 1.9403-4.0746 1.3582-7.5671 2.9104v68.88h-33.955v-102.83z" style="font-feature-settings:normal;font-variant-caps:normal;font-variant-ligatures:normal;font-variant-numeric:normal"/>
   </g>
  </g>
 </g>
</svg>
