<?xml version="1.0" encoding="UTF-8"?>
<svg width="1120mm" height="250mm" version="1.1" viewBox="0 0 1120 250" xmlns="http://www.w3.org/2000/svg" xmlns:cc="http://creativecommons.org/ns#" xmlns:dc="http://purl.org/dc/elements/1.1/" xmlns:rdf="http://www.w3.org/1999/02/22-rdf-syntax-ns#">
 <metadata>
  <rdf:RDF>
   <cc:Work rdf:about="">
    <dc:format>image/svg+xml</dc:format>
    <dc:type rdf:resource="http://purl.org/dc/dcmitype/StillImage"/>
    <dc:title/>
   </cc:Work>
  </rdf:RDF>
 </metadata>
 <g transform="translate(0,-47)">
  <path transform="matrix(.26458 0 0 .26458 0 47)" d="m385.5 65.094a330.65 329.18 0 0 0-330.65 329.18 330.65 329.18 0 0 0 330.65 329.18 330.65 329.18 0 0 0 330.65-329.18 330.65 329.18 0 0 0-330.65-329.18zm0.53125 82.889a250.61 243.84 0 0 1 250.61 243.84 250.61 243.84 0 0 1-250.61 243.84 250.61 243.84 0 0 1-250.61-243.84 250.61 243.84 0 0 1 250.61-243.84z" stroke-width="1.109"/>
  <g fill-opacity=".99248">
   <path transform="matrix(.26458 0 0 .26458 0 47)" d="m607.67 551.73c-5.4264-0.0589-10.875 1.9613-15.078 6.0742l-55.422 54.232c-8.4063 8.2258-8.5519 21.615-0.32617 30.021l54.225 55.414 84.986-84.727-53.441-54.615c-4.1129-4.2031-9.5169-6.3415-14.943-6.4004zm96.363 89.607-84.986 84.727 153.87 157.25c8.2258 8.4063 21.615 8.5519 30.021 0.32618l55.42-54.23c8.4063-8.2258 8.5519-21.615 0.32617-30.021z" stroke-width=".90238"/>
   <g stroke="#000" stroke-opacity=".99608">
    <g stroke-width=".26458">
     <circle cx="90.039" cy="99.943" r="5.2917"/>
    </g>
   </g>
  </g>
  <g stroke="#000" stroke-opacity=".99608">
   <path d="m139.54 108.93a7.938 7.938 0 0 1-7.938 7.938 7.938 7.938 0 0 1-7.938-7.938 7.938 7.938 0 0 1 7.938-7.938 7.938 7.938 0 0 1 7.938 7.938"/>
   <path d="m62.268 159.49a7.9375 7.9375 0 0 1-7.9375 7.9375 7.9375 7.9375 0 0 1-7.9375-7.9375 7.9375 7.9375 0 0 1 7.9375-7.9375 7.9375 7.9375 0 0 1 7.9375 7.9375"/>
   <path d="m87.804 192.5a7.9375 7.9375 0 0 1-7.9375 7.9375 7.9375 7.9375 0 0 1-7.9375-7.9375 7.9375 7.9375 0 0 1 7.9375-7.9375 7.9375 7.9375 0 0 1 7.9375 7.9375"/>
   <path d="m161.75 146.31a10.583 10.583 0 0 1-10.583 10.583 10.583 10.583 0 0 1-10.583-10.583 10.583 10.583 0 0 1 10.583-10.583 10.583 10.583 0 0 1 10.583 10.583"/>
   <path d="m137.12 192.75a10.583 10.583 0 0 1-10.583 10.583 10.583 10.583 0 0 1-10.583-10.583 10.583 10.583 0 0 1 10.583-10.583 10.583 10.583 0 0 1 10.583 10.583"/>
   <g>
    <path d="m86.482 109.6-6.4876 11.966" stroke-width="3.175"/>
    <path d="m62.268 159.49 22.551 0.15595" stroke-width="3.175"/>
    <g stroke-width="3.175">
     <path d="m78.393 135.75 11.34 12.096"/>
     <path d="m127.75 115.95-18.188 29.339"/>
     <path d="m147.72 156.78-16.93 27.517"/>
     <path d="m58.738 166.69 16.329 19.024"/>
     <path d="m108.86 168.49 11.339 15.119"/>
    </g>
   </g>
   <path d="m98.479 102.4a7.9375 7.9375 0 0 1-7.9375 7.9375 7.9375 7.9375 0 0 1-7.9375-7.9375 7.9375 7.9375 0 0 1 7.9375-7.9375 7.9375 7.9375 0 0 1 7.9375 7.9375"/>
   <path d="m83.144 128.47a7.9375 7.9375 0 0 1-7.9375 7.9375 7.9375 7.9375 0 0 1-7.9375-7.9375 7.9375 7.9375 0 0 1 7.9375-7.9375 7.9375 7.9375 0 0 1 7.9375 7.9375"/>
   <path d="m87.804 192.5 28.612-0.27" stroke-width="3.175"/>
  </g>
  <g style="font-feature-settings:normal;font-variant-caps:normal;font-variant-ligatures:normal;font-variant-numeric:normal" aria-label="LogonTracer">
   <g stroke-width=".070004" style="font-feature-settings:normal;font-variant-caps:normal;font-variant-ligatures:normal;font-variant-numeric:normal" aria-label="Timeline">
    <path d="m317.33 237.71h-35.56v-110.63h-41.487v-27.658h118.53v27.658h-41.487z" style="font-feature-settings:normal;font-variant-caps:normal;font-variant-ligatures:normal;font-variant-numeric:normal"/>
    <path d="m413.96 136.96v100.75h-34.572v-74.083h-14.817v-26.67zm-34.572-39.511h34.572v27.658h-34.572z" style="font-feature-settings:normal;font-variant-caps:normal;font-variant-ligatures:normal;font-variant-numeric:normal"/>
    <path d="m556.26 159.67q-3.3584 0-7.3096 0.59267-3.9511 0.59266-7.3096 1.3829-3.9511 0.79022-8.0998 1.9756v74.083h-34.572v-71.12q0-2.9633-1.9756-4.9389t-4.9389-1.9756h-0.98778q-3.3584 0-7.3096 0.59267-3.9511 0.59266-7.3096 1.3829-3.9511 0.79022-8.0998 1.9756v74.083h-34.572v-104.7h30.621l1.9756 9.8778q5.1364-3.3584 11.063-5.9267 5.1364-2.1731 11.458-3.9511 6.3218-1.9756 13.039-1.9756h1.9756q8.89 0 14.817 3.3584 6.1242 3.3584 9.8778 8.4949 4.9389-3.3584 11.063-5.9267 5.1364-2.1731 12.051-3.9511 7.112-1.9756 15.409-1.9756h1.9756q13.434 0 21.534 8.0998 8.0998 8.0998 8.0998 21.534v77.047h-34.572v-71.12q0-2.9633-1.9756-4.9389t-4.9389-1.9756z" style="font-feature-settings:normal;font-variant-caps:normal;font-variant-ligatures:normal;font-variant-numeric:normal"/>
    <path d="m657.17 155.72q-7.9022 0-7.9022 7.9022v10.866h33.584v-10.866q0-7.9022-7.9022-7.9022zm-42.474 6.9144q0-14.817 8.2973-23.114 8.4949-8.4949 23.312-8.4949h39.511q14.817 0 23.114 8.4949 8.4949 8.2973 8.4949 23.114v36.548h-68.157v7.9022q0 2.9633 1.9756 4.9389t4.9389 1.9756q8.4949 0 18.373-0.39511 10.075-0.39511 18.768-0.98778 10.075-0.79022 20.151-1.5804v24.694q-11.458 1.1853-23.509 1.9756-10.273 0.79022-22.324 1.3829-12.051 0.59267-23.312 0.59267-13.434 0-21.534-8.0998-8.0998-8.0998-8.0998-21.534z" style="font-feature-settings:normal;font-variant-caps:normal;font-variant-ligatures:normal;font-variant-numeric:normal"/>
    <path d="m735.13 99.42h34.572v105.69q0 2.9633 1.9756 4.9389t4.9389 1.9756h11.853v25.682q-3.9511 0.59266-8.0998 0.98777-3.556 0.39511-7.7047 0.59267-4.1487 0.39511-7.9022 0.39511-13.434 0-21.534-8.0998-8.0998-8.0998-8.0998-21.534z" style="font-feature-settings:normal;font-variant-caps:normal;font-variant-ligatures:normal;font-variant-numeric:normal"/>
    <path d="m845.73 136.96v100.75h-34.572v-74.083h-14.817v-26.67zm-34.572-39.511h34.572v27.658h-34.572z" style="font-feature-settings:normal;font-variant-caps:normal;font-variant-ligatures:normal;font-variant-numeric:normal"/>
    <path d="m896.17 133 1.9756 9.8778q5.1364-3.3584 11.063-5.9267 5.1364-2.1731 11.458-3.9511 6.3218-1.9756 13.039-1.9756h8.89q13.434 0 21.534 8.0998 8.0998 8.0998 8.0998 21.534v77.047h-34.572v-71.12q0-2.9633-1.9756-4.9389t-4.9389-1.9756h-6.9144q-3.7536 0-7.9022 0.59267-4.1487 0.59266-7.7047 1.3829-4.1487 0.79022-8.0998 1.9756v74.083h-34.572v-104.7z" style="font-feature-settings:normal;font-variant-caps:normal;font-variant-ligatures:normal;font-variant-numeric:normal"/>
    <path d="m1030.7 155.72q-7.9022 0-7.9022 7.9022v10.866h33.584v-10.866q0-7.9022-7.9023-7.9022zm-42.474 6.9144q0-14.817 8.2973-23.114 8.4949-8.4949 23.312-8.4949h39.511q14.817 0 23.114 8.4949 8.4949 8.2973 8.4949 23.114v36.548h-68.157v7.9022q0 2.9633 1.9756 4.9389 1.9755 1.9756 4.9389 1.9756 8.4948 0 18.373-0.39511 10.075-0.39511 18.768-0.98778 10.075-0.79022 20.151-1.5804v24.694q-11.458 1.1853-23.509 1.9756-10.273 0.79022-22.324 1.3829-12.051 0.59267-23.312 0.59267-13.434 0-21.534-8.0998-8.0998-8.0998-8.0998-21.534z" style="font-feature-settings:normal;font-variant-caps:normal;font-variant-ligatures:normal;font-variant-numeric:normal"/>
   </g>
  </g>
  <ellipse cx="100.5" cy="157.1" rx="15.214" ry="14.552" fill="#f00" stroke="#f00" stroke-width="1.1247"/>
 </g>
</svg>
