<?xml version="1.0" encoding="UTF-8"?>
<svg width="1480mm" height="250mm" version="1.1" viewBox="0 0 1480 250" xmlns="http://www.w3.org/2000/svg" xmlns:cc="http://creativecommons.org/ns#" xmlns:dc="http://purl.org/dc/elements/1.1/" xmlns:rdf="http://www.w3.org/1999/02/22-rdf-syntax-ns#">
 <metadata>
  <rdf:RDF>
   <cc:Work rdf:about="">
    <dc:format>image/svg+xml</dc:format>
    <dc:type rdf:resource="http://purl.org/dc/dcmitype/StillImage"/>
    <dc:title/>
   </cc:Work>
  </rdf:RDF>
 </metadata>
 <g transform="translate(0,-47)">
  <path transform="matrix(.26458 0 0 .26458 0 47)" d="m385.5 65.094a330.65 329.18 0 0 0-330.65 329.18 330.65 329.18 0 0 0 330.65 329.18 330.65 329.18 0 0 0 330.65-329.18 330.65 329.18 0 0 0-330.65-329.18zm0.53125 82.889a250.61 243.84 0 0 1 250.61 243.84 250.61 243.84 0 0 1-250.61 243.84 250.61 243.84 0 0 1-250.61-243.84 250.61 243.84 0 0 1 250.61-243.84z" stroke-width="1.109"/>
  <g fill-opacity=".99248">
   <path transform="matrix(.26458 0 0 .26458 0 47)" d="m607.67 551.73c-5.4264-0.0589-10.875 1.9613-15.078 6.0742l-55.422 54.232c-8.4063 8.2258-8.5519 21.615-0.32617 30.021l54.225 55.414 84.986-84.727-53.441-54.615c-4.1129-4.2031-9.5169-6.3415-14.943-6.4004zm96.363 89.607-84.986 84.727 153.87 157.25c8.2258 8.4063 21.615 8.5519 30.021 0.32618l55.42-54.23c8.4063-8.2258 8.5519-21.615 0.32617-30.021z" stroke-width=".90238"/>
   <g stroke="#000" stroke-opacity=".99608">
    <g stroke-width=".26458">
     <circle cx="90.039" cy="99.943" r="5.2917"/>
    </g>
   </g>
  </g>
  <g stroke="#000" stroke-opacity=".99608">
   <path d="m86.255 192.67 30.766-0.28514m-33.878-63.911a7.9375 7.9375 0 0 1-7.9375 7.9375 7.9375 7.9375 0 0 1-7.9375-7.9375 7.9375 7.9375 0 0 1 7.9375-7.9375 7.9375 7.9375 0 0 1 7.9375 7.9375m15.335-26.07a7.9375 7.9375 0 0 1-7.9375 7.9375 7.9375 7.9375 0 0 1-7.9375-7.9375 7.9375 7.9375 0 0 1 7.9375-7.9375 7.9375 7.9375 0 0 1 7.9375 7.9375m38.644 90.35a10.583 10.583 0 0 1-10.583 10.583 10.583 10.583 0 0 1-10.583-10.583 10.583 10.583 0 0 1 10.583-10.583 10.583 10.583 0 0 1 10.583 10.583m24.63-46.44a10.583 10.583 0 0 1-10.583 10.583 10.583 10.583 0 0 1-10.583-10.583 10.583 10.583 0 0 1 10.583-10.583 10.583 10.583 0 0 1 10.583 10.583m-73.949 46.19a7.9375 7.9375 0 0 1-7.9375 7.9375 7.9375 7.9375 0 0 1-7.9375-7.9375 7.9375 7.9375 0 0 1 7.9375-7.9375 7.9375 7.9375 0 0 1 7.9375 7.9375m-25.537-33.01a7.9375 7.9375 0 0 1-7.9375 7.9375 7.9375 7.9375 0 0 1-7.9375-7.9375 7.9375 7.9375 0 0 1 7.9375-7.9375 7.9375 7.9375 0 0 1 7.9375 7.9375m77.271-50.56a7.938 7.938 0 0 1-7.938 7.938 7.938 7.938 0 0 1-7.938-7.938 7.938 7.938 0 0 1 7.938-7.938 7.938 7.938 0 0 1 7.938 7.938m-30.683 60.317 13.607 15.875m-64.481-18.435 18.597 19.024m71.892-31.204-17.685 29.785m-3.0307-69.094-17.432 30.095m-29.662-10.297 11.34 12.096m-29.86 12.555 22.678-0.75595m2.4194-48.53-7.2435 11.966" stroke-width="3.175"/>
  </g>
  <g stroke-width=".26458" style="font-feature-settings:normal;font-variant-caps:normal;font-variant-ligatures:normal;font-variant-numeric:normal" aria-label="LogonTracer">
   <path d="m273.23 200.62h70.82v27.164h-105.75v-135.82h34.925z" style="font-feature-settings:normal;font-variant-caps:normal;font-variant-ligatures:normal;font-variant-numeric:normal"/>
   <path d="m460.51 198.68q0 14.552-8.3432 22.895-8.1492 8.1492-22.701 8.1492h-44.626q-14.552 0-22.895-8.1492-8.1492-8.3432-8.1492-22.895v-44.626q0-14.552 8.1492-22.701 8.3432-8.3432 22.895-8.3432h44.626q14.552 0 22.701 8.3432 8.3432 8.1492 8.3432 22.701zm-33.955-41.716q0-7.7611-7.7611-7.7611h-23.283q-7.7611 0-7.7611 7.7611v38.806q0 7.7611 7.7611 7.7611h23.283q7.7611 0 7.7611-7.7611z" style="font-feature-settings:normal;font-variant-caps:normal;font-variant-ligatures:normal;font-variant-numeric:normal"/>
   <path d="m476.2 155.99q0-14.552 8.1492-22.701 8.3432-8.3432 22.895-8.3432h71.79v108.66q0 13.194-7.9551 21.149-7.9551 7.9551-21.149 7.9551-11.06 0-22.895-0.58208t-21.925-1.3582q-11.836-0.77611-23.089-1.9403v-25.224q9.8954 0.77611 19.791 1.5522 8.5372 0.58208 18.239 0.97014 9.7014 0.38805 18.239 0.38805 2.9104 0 4.8507-1.9403t1.9403-4.8507v-9.7014q-5.6268 1.1642-11.448 1.9403-5.0447 0.77611-10.866 1.3582-5.6268 0.58209-10.672 0.58209h-6.791q-13.194 0-21.149-7.9551t-7.9551-21.149zm33.955 34.925q0 2.9104 1.9403 4.8507t4.8507 1.9403h4.8507q4.6567 0 8.7312-0.19403 4.2686-0.38805 7.5671-0.77611 3.6865-0.38806 6.985-0.97014v-44.626h-27.164q-7.7611 0-7.7611 7.7611z" style="font-feature-settings:normal;font-variant-caps:normal;font-variant-ligatures:normal;font-variant-numeric:normal"/>
   <path d="m703.05 198.68q0 14.552-8.3432 22.895-8.1492 8.1492-22.701 8.1492h-44.626q-14.552 0-22.895-8.1492-8.1492-8.3432-8.1492-22.895v-44.626q0-14.552 8.1492-22.701 8.3432-8.3432 22.895-8.3432h44.626q14.552 0 22.701 8.3432 8.3432 8.1492 8.3432 22.701zm-33.955-41.716q0-7.7611-7.7611-7.7611h-23.283q-7.7611 0-7.7611 7.7611v38.806q0 7.7611 7.7611 7.7611h23.283q7.7611 0 7.7611-7.7611z" style="font-feature-settings:normal;font-variant-caps:normal;font-variant-ligatures:normal;font-variant-numeric:normal"/>
   <path d="m750.75 124.95 1.9403 9.7014q5.0447-3.2985 10.866-5.8208 5.0447-2.1343 11.254-3.8806 6.2089-1.9403 12.806-1.9403h8.7312q13.194 0 21.149 7.9551 7.9551 7.9551 7.9551 21.149v75.671h-33.955v-69.85q0-2.9104-1.9403-4.8507t-4.8507-1.9403h-6.791q-3.6865 0-7.7611 0.58209-4.0746 0.58208-7.5671 1.3582-4.0746 0.77611-7.9551 1.9403v72.76h-33.955v-102.83z" style="font-feature-settings:normal;font-variant-caps:normal;font-variant-ligatures:normal;font-variant-numeric:normal"/>
   <path d="m910.99 227.78h-34.925v-108.66h-40.746v-27.164h116.42v27.164h-40.746z" style="font-feature-settings:normal;font-variant-caps:normal;font-variant-ligatures:normal;font-variant-numeric:normal"/>
   <path d="m983.43 124.95 1.9403 12.612q4.4626-3.8806 9.8954-7.179 4.6567-2.7164 10.866-5.0447 6.4029-2.3283 14.164-2.3283h8.7313v30.074h-16.492q-5.0447 0-9.7014 0.97014-4.4626 0.97014-7.9551 1.9403-4.0746 1.3582-7.5671 2.9104v68.88h-33.955v-102.83z" style="font-feature-settings:normal;font-variant-caps:normal;font-variant-ligatures:normal;font-variant-numeric:normal"/>
   <path d="m1076 202.56q3.6866 0 7.7612-0.58208 4.0745-0.58208 7.567-1.3582 4.0746-0.77612 7.9552-1.9403v-11.642h-28.134q-2.9104 0-4.8506 1.9403-1.9403 1.9403-1.9403 4.8507v1.9403q0 2.9104 1.9403 4.8507 1.9402 1.9403 4.8506 1.9403zm-16.492 27.164q-13.194 0-21.149-7.9551-7.9552-7.9551-7.9552-21.149v-8.7312q0-13.194 7.9552-21.149 7.9551-7.9551 21.149-7.9551h39.776v-7.7611q0-2.9104-1.9403-4.8507t-4.8507-1.9403q-7.7611 0-16.88 0.58208-8.9253 0.38806-16.88 0.97014-9.3134 0.77611-18.627 1.3582v-24.253q10.672-1.1642 21.731-1.9403 9.5074-0.77611 20.761-1.3582t21.537-0.58208q13.194 0 21.149 7.9551 7.9551 7.9551 7.9551 21.149v75.671h-30.074l-1.9402-9.7014q-5.0448 3.2985-10.866 5.8208-5.0447 2.1343-11.254 3.8806-6.2089 1.9403-12.806 1.9403z" style="font-feature-settings:normal;font-variant-caps:normal;font-variant-ligatures:normal;font-variant-numeric:normal"/>
   <path d="m1148.9 155.99q0-14.552 8.1491-22.701 8.3432-8.3432 22.895-8.3432h62.089v26.194h-51.417q-7.7612 0-7.7612 7.7611v37.835q0 2.9104 1.9403 4.8507t4.8507 1.9403q7.5671 0 16.686-0.38805 9.1193-0.38806 17.074-0.97014 9.3134-0.77611 18.627-1.5522v25.224q-10.866 1.1642-21.925 1.9403-9.5074 0.77611-20.761 1.3582-11.06 0.58208-21.343 0.58208-13.194 0-21.149-7.9551-7.9551-7.9551-7.9551-21.149z" style="font-feature-settings:normal;font-variant-caps:normal;font-variant-ligatures:normal;font-variant-numeric:normal"/>
   <path d="m1297.4 147.26q-7.7611 0-7.7611 7.7611v10.672h32.985v-10.672q0-7.7611-7.7611-7.7611zm-41.716 6.791q0-14.552 8.1491-22.701 8.3432-8.3432 22.895-8.3432h38.806q14.552 0 22.701 8.3432 8.3432 8.1492 8.3432 22.701v35.895h-66.94v7.7611q0 2.9104 1.9403 4.8507t4.8507 1.9403q8.3432 0 18.045-0.38805 9.8954-0.38806 18.433-0.97014 9.8954-0.77611 19.791-1.5522v24.253q-11.254 1.1642-23.089 1.9403-10.089 0.77611-21.925 1.3582-11.836 0.58208-22.895 0.58208-13.194 0-21.149-7.9551t-7.9551-21.149z" style="font-feature-settings:normal;font-variant-caps:normal;font-variant-ligatures:normal;font-variant-numeric:normal"/>
   <path d="m1404.1 124.95 1.9403 12.612q4.4626-3.8806 9.8954-7.179 4.6567-2.7164 10.866-5.0447 6.4029-2.3283 14.164-2.3283h8.7313v30.074h-16.492q-5.0447 0-9.7014 0.97014-4.4626 0.97014-7.9551 1.9403-4.0746 1.3582-7.5671 2.9104v68.88h-33.955v-102.83z" style="font-feature-settings:normal;font-variant-caps:normal;font-variant-ligatures:normal;font-variant-numeric:normal"/>
  </g>
  <ellipse cx="100.5" cy="157.1" rx="15.214" ry="14.552" fill="#f00" stroke="#f00" stroke-width="1.1247"/>
 </g>
</svg>
