<?xml version="1.0" encoding="UTF-8"?>
<svg width="240mm" height="250mm" version="1.1" viewBox="0 0 240 250" xmlns="http://www.w3.org/2000/svg">
 <g transform="translate(0,-47)">
  <g>
   <path transform="matrix(.26458 0 0 .26458 0 47)" d="m385.5 65.094a330.65 329.18 0 0 0 -330.65 329.18 330.65 329.18 0 0 0 330.65 329.18 330.65 329.18 0 0 0 330.65 -329.18 330.65 329.18 0 0 0 -330.65 -329.18zm0.53125 82.889a250.61 243.84 0 0 1 250.61 243.84 250.61 243.84 0 0 1 -250.61 243.84 250.61 243.84 0 0 1 -250.61 -243.84 250.61 243.84 0 0 1 250.61 -243.84z" stroke-width="1.109"/>
   <g fill-opacity=".99248">
    <path transform="matrix(.26458 0 0 .26458 0 47)" d="m607.67 551.73c-5.4264-0.0589-10.875 1.9613-15.078 6.0742l-55.422 54.232c-8.4063 8.2258-8.5519 21.615-0.32617 30.021l54.225 55.414 84.986-84.727-53.441-54.615c-4.1129-4.2031-9.5169-6.3415-14.943-6.4004zm96.363 89.607l-84.986 84.727 153.87 157.25c8.2258 8.4063 21.615 8.5519 30.021 0.32618l55.42-54.23c8.4063-8.2258 8.5519-21.615 0.32617-30.021l-154.65-158.05z" stroke-width=".90238"/>
    <g stroke="#000" stroke-opacity=".99608">
     <circle cx="131.6" cy="108.93" r="7.938" stroke-width=".3969"/>
     <g stroke-width=".26458">
      <circle cx="54.33" cy="159.49" r="7.9375"/>
      <circle cx="79.867" cy="192.5" r="7.9375"/>
      <circle cx="151.17" cy="146.31" r="10.583"/>
      <circle cx="90.039" cy="99.943" r="5.2917"/>
      <circle cx="126.54" cy="192.75" r="10.583"/>
     </g>
    </g>
   </g>
   <g stroke="#000" stroke-opacity=".99608" stroke-width="2.5">
    <path d="m91.017 102.8l-15.559 25.573"/>
    <path d="m56.092 158.89h42.333"/>
    <path d="m69.321 122.9l37.042 37.042"/>
    <path d="m132.29 109.15c-28.015 46.726-28.015 46.726-28.015 46.726"/>
    <path d="m156.03 140.9c-25.245 43.392-25.245 43.392-25.245 43.392"/>
    <path d="m53.446 156.86c30.692 37.923 30.692 37.923 30.692 37.923"/>
    <path d="m100.54 159.42l26.458 31.75"/>
   </g>
  </g>
  <ellipse cx="100.5" cy="157.1" rx="15.214" ry="14.552" fill="#f00" stroke="#f00" stroke-width="1.1247"/>
  <g stroke="#000" stroke-opacity=".99608">
   <circle cx="90.541" cy="102.4" r="7.9375" stroke-width="2"/>
   <circle cx="75.206" cy="128.47" r="7.9375" fill-opacity=".99606" stroke-width="2"/>
   <path d="m79.375 192.23h42.333" stroke-width="2.5"/>
  </g>
 </g>
</svg>
